<?xml version="1.0" standalone="no"?>
<!DOCTYPE svg PUBLIC "-//W3C//DTD SVG 20010904//EN"
 "http://www.w3.org/TR/2001/REC-SVG-20010904/DTD/svg10.dtd">
<svg version="1.0" xmlns="http://www.w3.org/2000/svg"
 width="700.000000pt" height="700.000000pt" viewBox="0 0 700.000000 700.000000"
 preserveAspectRatio="xMidYMid meet">
<metadata>
Created by potrace 1.14, written by Peter Selinger 2001-2017
</metadata>
<g transform="translate(0.000000,700.000000) scale(0.100000,-0.100000)"
fill="#000000" stroke="none">
<path d="M1012 6963 c-18 -9 -44 -34 -57 -57 -13 -23 -233 -428 -490 -901
l-465 -860 2 -2067 3 -2067 21 -28 c11 -15 36 -36 55 -45 32 -17 158 -18 2206
-18 l2173 0 67 -46 c219 -151 500 -224 752 -196 199 22 390 93 540 200 l74 54
446 -445 c245 -245 456 -450 468 -456 56 -28 136 0 173 61 23 39 25 76 6 121
-8 18 -208 226 -459 476 l-446 445 18 25 c201 283 255 680 139 1010 -116 328
-357 574 -683 696 l-60 23 -5 1133 -5 1134 -459 875 c-291 555 -471 888 -493
910 l-33 35 -1728 2 c-1578 2 -1730 1 -1760 -14z m3720 -985 c208 -397 376
-723 374 -725 -1 -2 -1065 -2 -2364 -1 l-2361 3 392 723 391 722 1596 0 1595
-1 377 -721z m478 -2027 l0 -1018 -117 -6 c-515 -26 -953 -425 -1039 -947 -21
-122 -13 -320 16 -438 22 -89 72 -218 115 -295 l27 -47 -306 0 -306 0 0 986
c0 983 0 986 -21 1024 -11 20 -35 45 -52 56 -31 18 -61 19 -782 19 -732 0
-751 0 -784 -20 -18 -11 -42 -36 -52 -55 -18 -33 -19 -78 -19 -1022 l0 -988
-805 0 -805 0 0 1885 0 1885 2465 0 2465 0 0 -1019z m-1890 -1851 l0 -900
-575 0 -575 0 0 900 0 900 575 0 575 0 0 -900z m2050 526 c192 -51 338 -145
456 -291 76 -94 135 -209 165 -320 30 -113 31 -307 0 -420 -102 -382 -431
-637 -821 -637 -386 0 -722 260 -821 637 -28 104 -30 298 -6 399 81 329 339
576 672 642 86 17 276 12 355 -10z"/>
<path d="M533 2990 c-45 -27 -63 -68 -63 -143 0 -80 26 -125 86 -146 83 -29
161 13 184 99 29 109 -36 210 -135 210 -22 0 -54 -9 -72 -20z"/>
<path d="M571 2489 c-18 -4 -48 -21 -65 -38 l-31 -31 -3 -486 c-2 -474 -2
-487 18 -519 23 -37 73 -65 117 -65 41 0 95 32 118 71 19 32 20 55 23 459 2
234 0 449 -3 479 -12 93 -86 149 -174 130z"/>
</g>
</svg>
