<?xml version="1.0" encoding="UTF-8"?>
<!DOCTYPE svg  PUBLIC '-//W3C//DTD SVG 1.1//EN'  'http://www.w3.org/Graphics/SVG/1.1/DTD/svg11.dtd'>
<svg enable-background="new 0 0 203.556 203.556" version="1.1" viewBox="0 0 203.56 203.56" xml:space="preserve" xmlns="http://www.w3.org/2000/svg">
	<path fill="#333" d="m201.36 137.3-43.831-43.831 11.453-11.452c1.407-1.407 2.197-3.314 2.197-5.304 0-1.989-0.79-3.896-2.197-5.304l-36.835-36.834c-2.929-2.928-7.677-2.928-10.606 0l-11.452 11.452-43.835-43.831c-2.93-2.928-7.678-2.928-10.606 0l-36.834 36.834c-2.929 2.93-2.929 7.678 0 10.607l43.831 43.831-11.453 11.452c-1.407 1.407-2.197 3.314-2.197 5.304s0.79 3.896 2.197 5.304l36.837 36.836c1.464 1.464 3.384 2.196 5.303 2.196s3.839-0.732 5.303-2.196l11.453-11.453 43.83 43.83c1.465 1.464 3.384 2.196 5.303 2.196s3.839-0.732 5.303-2.196l36.835-36.834c1.407-1.407 2.197-3.314 2.197-5.304 1e-3 -1.989-0.789-3.896-2.196-5.303zm-166.64-92.966 26.227-26.227 38.53 38.526-26.229 26.229-38.528-38.528zm58.608 92.12-26.23-26.229 11.448-11.447 12.448-12.448 35.845-35.844 26.229 26.228-11.453 11.453-18.417 18.418-29.87 29.869zm65.89 32.377-38.527-38.526 26.229-26.229 38.527 38.527-26.229 26.228z"/>
	<path fill="#333" d="m72.344 188.56c-15.317 1e-3 -29.717-5.964-40.548-16.795s-16.796-25.232-16.796-40.549c0-4.143-3.358-7.5-7.5-7.5-4.143 0-7.5 3.358-7.5 7.5 0 19.324 7.526 37.491 21.189 51.155s31.829 21.189 51.152 21.189h4e-3c4.142 0 7.499-3.358 7.499-7.5 1e-3 -4.143-3.358-7.5-7.5-7.5z"/>
	<path fill="#333" d="m69.346 174.13c4.142 0 7.5-3.357 7.5-7.5s-3.358-7.5-7.5-7.5c-6.658 0-12.916-2.593-17.624-7.3-4.707-4.707-7.299-10.965-7.299-17.622 0-4.142-3.357-7.5-7.5-7.5-4.142 0-7.5 3.358-7.5 7.5-1e-3 10.663 4.152 20.688 11.693 28.229 7.54 7.541 17.566 11.693 28.23 11.693z"/>
</svg>
